<svg width="16" height="16" viewBox="0 0 16 16" fill="none" xmlns="http://www.w3.org/2000/svg">
<path fill-rule="evenodd" clip-rule="evenodd" d="M7.9974 0.666687C6.52464 0.666687 5.33073 1.86059 5.33073 3.33335V8.00002C5.33073 9.47278 6.52464 10.6667 7.9974 10.6667C9.47016 10.6667 10.6641 9.47278 10.6641 8.00002V3.33335C10.6641 1.86059 9.47016 0.666687 7.9974 0.666687Z" fill="#292524"/>
<path d="M3.9974 6.66669C3.9974 6.2985 3.69892 6.00002 3.33073 6.00002C2.96254 6.00002 2.66406 6.2985 2.66406 6.66669V8.00002C2.66406 10.7202 4.7005 12.9647 7.33198 13.2922C7.33115 13.3058 7.33073 13.3195 7.33073 13.3334V14H5.33073C4.96254 14 4.66406 14.2985 4.66406 14.6667C4.66406 15.0349 4.96254 15.3334 5.33073 15.3334H10.6641C11.0323 15.3334 11.3307 15.0349 11.3307 14.6667C11.3307 14.2985 11.0323 14 10.6641 14H8.66406V13.3334C8.66406 13.3195 8.66364 13.3058 8.66281 13.2922C11.2943 12.9647 13.3307 10.7202 13.3307 8.00002V6.66669C13.3307 6.2985 13.0323 6.00002 12.6641 6.00002C12.2959 6.00002 11.9974 6.2985 11.9974 6.66669V8.00002C11.9974 10.2092 10.2065 12 7.9974 12C5.78826 12 3.9974 10.2092 3.9974 8.00002V6.66669Z" fill="#292524"/>
</svg>
