<svg width="12" height="12" viewBox="0 0 12 12" fill="none" xmlns="http://www.w3.org/2000/svg">
<path fill-rule="evenodd" clip-rule="evenodd" d="M9.01578 7.43838C9.08461 7.17095 9.3572 7.00996 9.62463 7.07879C10.7028 7.35629 11.5 8.33441 11.5 9.5V10.5C11.5 10.7761 11.2761 11 11 11C10.7239 11 10.5 10.7761 10.5 10.5V9.5C10.5 8.80175 10.0224 8.21377 9.37537 8.04723C9.10794 7.9784 8.94695 7.70581 9.01578 7.43838Z" fill="white"/>
<path fill-rule="evenodd" clip-rule="evenodd" d="M7.28653 1.45777C7.39014 1.20181 7.68164 1.0783 7.93761 1.18191C8.85288 1.5524 9.5 2.45003 9.5 3.5C9.5 4.54997 8.85288 5.4476 7.93761 5.81809C7.68164 5.9217 7.39014 5.7982 7.28653 5.54223C7.18292 5.28626 7.30642 4.99476 7.56239 4.89115C8.11303 4.66826 8.5 4.12872 8.5 3.5C8.5 2.87128 8.11303 2.33174 7.56239 2.10885C7.30642 2.00524 7.18292 1.71374 7.28653 1.45777Z" fill="white"/>
<path fill-rule="evenodd" clip-rule="evenodd" d="M3.58947 6.99998C4.36316 7.00024 5.13684 7.00024 5.91053 6.99998C6.45584 6.9998 6.82794 6.99968 7.14705 7.08519C8.00978 7.31635 8.68365 7.99022 8.91481 8.85295C9.02994 9.2826 8.99661 9.74179 9.00009 10.182C9.00051 10.2355 9.00137 10.3436 8.97444 10.4441C8.90509 10.7029 8.70293 10.9051 8.44411 10.9744C8.34361 11.0014 8.2355 11.0005 8.18204 11.0001C5.89454 10.9818 3.60546 10.9818 1.31795 11.0001C1.2645 11.0005 1.15639 11.0014 1.05589 10.9744C0.797066 10.9051 0.594905 10.7029 0.525555 10.4441C0.498624 10.3436 0.499486 10.2355 0.499912 10.182C0.503413 9.74288 0.470242 9.28193 0.585185 8.85295C0.816353 7.99022 1.49022 7.31635 2.35295 7.08519C2.67206 6.99968 3.04416 6.9998 3.58947 6.99998Z" fill="white"/>
<path fill-rule="evenodd" clip-rule="evenodd" d="M2.25 3.5C2.25 2.11929 3.36929 1 4.75 1C6.13071 1 7.25 2.11929 7.25 3.5C7.25 4.88071 6.13071 6 4.75 6C3.36929 6 2.25 4.88071 2.25 3.5Z" fill="white"/>
</svg>
