<svg width="12" height="12" viewBox="0 0 12 12" fill="none" xmlns="http://www.w3.org/2000/svg">
<path fill-rule="evenodd" clip-rule="evenodd" d="M1.43302 5.82115C1.45678 5.87841 1.46873 5.93917 1.46886 6C1.46873 6.06083 1.45678 6.12159 1.43302 6.17885L1.1051 6.97284C1.03582 7.14005 1.00003 7.31955 1 7.50055C0.999971 7.68165 1.03563 7.86098 1.10493 8.02829C1.17423 8.1956 1.27582 8.34762 1.40389 8.47566C1.53193 8.60366 1.68393 8.70519 1.85121 8.77444L2.64391 9.1028C2.75871 9.15027 2.85027 9.24142 2.89807 9.35609L3.2265 10.149C3.3664 10.4868 3.63475 10.7552 3.97251 10.8951C4.31028 11.035 4.68979 11.035 5.02755 10.8951L5.81988 10.5669C5.93485 10.5194 6.0641 10.5195 6.17899 10.5671L6.17989 10.5675L6.97292 10.8946C7.31057 11.0343 7.69015 11.0343 8.02776 10.8945C8.36546 10.7546 8.63377 10.4863 8.77369 10.1487L9.09424 9.37476C9.09709 9.36866 9.09981 9.36246 9.10241 9.35618C9.14993 9.24125 9.2411 9.14989 9.3559 9.10214L10.1491 8.77359C10.4868 8.63368 10.7552 8.36532 10.8951 8.02755C11.035 7.68978 11.035 7.31028 10.8951 6.97251L10.5667 6.17978C10.5429 6.12221 10.531 6.06114 10.531 6.00014C10.531 5.93913 10.5429 5.87779 10.5667 5.82022L10.8951 5.02749C11.035 4.68972 11.035 4.31021 10.8951 3.97245C10.7552 3.63468 10.4868 3.36632 10.1491 3.22641L9.3559 2.89786C9.2411 2.85011 9.14993 2.75875 9.10241 2.64382C9.09981 2.63754 9.09709 2.63135 9.09424 2.62524L8.77369 1.85134C8.63377 1.51366 8.36546 1.24538 8.02776 1.1055C7.69015 0.965649 7.31057 0.965695 6.97292 1.10542L6.17989 1.43249L6.17899 1.43287C6.0641 1.48054 5.93485 1.4806 5.81988 1.43314L5.02755 1.10493C4.68979 0.965022 4.31028 0.965022 3.97251 1.10493C3.63475 1.24485 3.3664 1.5132 3.2265 1.85097L2.89807 2.64391C2.85027 2.75858 2.75871 2.84973 2.64391 2.8972L1.85121 3.22556C1.68393 3.29481 1.53193 3.39634 1.40389 3.52434C1.27582 3.65238 1.17423 3.8044 1.10493 3.97171C1.03563 4.13902 0.999971 4.31835 1 4.49945C1.00003 4.68045 1.03582 4.85995 1.1051 5.02716L1.43302 5.82115ZM6.39745 4.02347C6.32216 3.8729 6.16827 3.77779 5.99992 3.77779C5.83158 3.77779 5.67769 3.8729 5.6024 4.02347L5.32783 4.57262C5.20228 4.82371 5.16402 4.89597 5.11754 4.95628C5.07091 5.01677 5.01668 5.07099 4.9562 5.11762C4.89589 5.1641 4.82363 5.20236 4.57253 5.32791L4.02339 5.60249C3.87282 5.67777 3.7777 5.83167 3.7777 6.00001C3.7777 6.16835 3.87282 6.32225 4.02339 6.39753L4.57253 6.67211C4.82363 6.79765 4.89589 6.83591 4.9562 6.8824C5.01668 6.92902 5.07091 6.98325 5.11754 7.04374C5.16402 7.10404 5.20228 7.1763 5.32783 7.4274L5.6024 7.97655C5.67769 8.12712 5.83158 8.22223 5.99992 8.22223C6.16827 8.22223 6.32216 8.12712 6.39745 7.97655L6.67202 7.4274C6.79757 7.1763 6.83583 7.10404 6.88231 7.04374C6.92894 6.98325 6.98317 6.92902 7.04365 6.8824C7.10396 6.83591 7.17622 6.79765 7.42732 6.67211L7.97646 6.39753C8.12703 6.32225 8.22215 6.16835 8.22215 6.00001C8.22215 5.83167 8.12703 5.67777 7.97646 5.60249L7.42732 5.32791C7.17622 5.20236 7.10396 5.1641 7.04365 5.11762C6.98317 5.07099 6.92894 5.01677 6.88231 4.95628C6.83583 4.89597 6.79757 4.82371 6.67202 4.57262L6.39745 4.02347Z" fill="#9B6C5B"/>
</svg>
